<?xml version="1.0" encoding="UTF-8"?>
<svg width="600px" height="146px" viewBox="0 0 600 146" version="1.1" xmlns="http://www.w3.org/2000/svg" xmlns:xlink="http://www.w3.org/1999/xlink">
    <!-- Generator: Sketch 55 (78076) - https://sketchapp.com -->
    <title>Artboard Copy 4</title>
    <desc>Created with Sketch.</desc>
    <defs>
        <linearGradient x1="99.8411439%" y1="0%" x2="0.158856135%" y2="100%" id="linearGradient-1">
            <stop stop-color="#32FBFC" offset="0%"></stop>
            <stop stop-color="#3214F2" offset="100%"></stop>
        </linearGradient>
    </defs>
    <g id="Artboard-Copy-4" stroke="none" stroke-width="1" fill="none" fill-rule="evenodd">
        <rect id="Rectangle" stroke="#979797" fill="url(#linearGradient-1)" x="-13.5" y="-240.5" width="627" height="628"></rect>
        <path d="M162.668024,93 C149.665988,93 140,82.9810606 140,70 C140,57.0189394 149.665988,47 162.668024,47 C170.965377,47 178.321792,51.4431818 182,58.1515152 L170.794297,64.7727273 C169.340122,61.7234848 166.260692,59.8939394 162.496945,59.8939394 C156.936864,59.8939394 152.830957,63.9886364 152.830957,70 C152.830957,76.0113636 156.936864,80.1060606 162.496945,80.1060606 C166.260692,80.1060606 169.425662,78.2765152 170.794297,75.2272727 L182,81.7613636 C178.321792,88.5568182 171.050916,93 162.668024,93 Z M199.5,55.5411765 C201.166667,49.7607843 206.75,47 212,47 L212,61.6666667 C206.833333,60.8039216 199.5,62.9607843 199.5,71.5019608 L199.5,91 L187,91 L187,47.8627451 L199.5,47.8627451 L199.5,55.5411765 Z M245.415094,48 L259,48 L244.481132,90.2328045 C239.726415,104.078198 232.169811,109.564109 220.283019,108.954563 L220.283019,96.7636506 C226.226415,96.7636506 229.028302,94.8479357 230.896226,89.5361809 L214,48 L228.009434,48 L237.433962,74.6458519 L245.415094,48 Z M288.565056,47 C299.765799,47 309,56.9859944 309,69.9243697 C309,82.8627451 299.765799,92.8487395 288.565056,92.8487395 C282.836431,92.8487395 278.64684,90.8515406 275.825279,87.5518207 L275.825279,109 L263,109 L263,48.2156863 L275.825279,48.2156863 L275.825279,52.2969188 C278.64684,48.9971989 282.836431,47 288.565056,47 Z M286,80 C291.798319,80 296,75.954918 296,69.5 C296,63.045082 291.798319,59 286,59 C280.201681,59 276,63.045082 276,69.5 C276,75.954918 280.201681,80 286,80 Z M340,60.7035764 L331.339339,60.7035764 L331.339339,76.0998195 C331.339339,79.8401497 334.45045,80.1880874 340,79.8401497 L340,91.6700314 C323.51952,93.4097199 318.726727,88.2776389 318.726727,76.0998195 L318.726727,60.7035764 L312,60.7035764 L312,48.1778194 L318.726727,48.1778194 L318.726727,39.9142991 L331.339339,36 L331.339339,48.1778194 L340,48.1778194 L340,60.7035764 Z M366.5,93 C354.018868,93 344,82.9810606 344,70 C344,57.0189394 354.018868,47 366.5,47 C378.981132,47 389,57.0189394 389,70 C389,82.9810606 378.981132,93 366.5,93 Z M366.5,80 C371.869565,80 376,76.0169492 376,70 C376,63.9830508 371.869565,60 366.5,60 C361.130435,60 357,63.9830508 357,70 C357,76.0169492 361.130435,80 366.5,80 Z M426.516729,48.2115385 L439,48.2115385 L439,89.3173077 C439,103.855769 427.799257,110 416.427509,110 C407.535316,110 400.096654,106.625 396.163569,99.5288462 L407.107807,93.125 C408.732342,96.1538462 411.211896,98.5769231 416.855019,98.5769231 C422.840149,98.5769231 426.516729,95.4615385 426.516729,89.3173077 L426.516729,85.3365385 C423.695167,88.8846154 419.591078,90.9615385 414.033457,90.9615385 C401.892193,90.9615385 393,80.9230769 393,68.9807692 C393,57.0384615 401.892193,47 414.033457,47 C419.591078,47 423.695167,49.0769231 426.516729,52.625 L426.516729,48.2115385 Z M416,79 C421.867769,79 426,74.9482759 426,69 C426,63.0517241 421.867769,59 416,59 C410.132231,59 406,63.0517241 406,69 C406,74.9482759 410.132231,79 416,79 Z M468.5,93 C456.018868,93 446,82.9810606 446,70 C446,57.0189394 456.018868,47 468.5,47 C480.981132,47 491,57.0189394 491,70 C491,82.9810606 480.981132,93 468.5,93 Z M468.5,80 C473.869565,80 478,76.0169492 478,70 C478,63.9830508 473.869565,60 468.5,60 C463.130435,60 459,63.9830508 459,70 C459,76.0169492 463.130435,80 468.5,80 Z M509.06383,60.9393939 C509.06383,65.905303 530,62.594697 530,78.7121212 C530,88.7310606 521.489362,93 512.297872,93 C503.787234,93 497.319149,89.6893939 494,82.6325758 L505.06383,76.1856061 C506.170213,79.4962121 508.553191,81.3257576 512.297872,81.3257576 C515.361702,81.3257576 516.893617,80.3674242 516.893617,78.625 C516.893617,73.8333333 495.957447,76.3598485 495.957447,61.2878788 C495.957447,51.7916667 503.787234,47 512.638298,47 C519.531915,47 525.659574,50.1363636 529.234043,56.3219697 L518.340426,62.3333333 C517.148936,60.0681818 515.446809,58.5 512.638298,58.5 C510.425532,58.5 509.06383,59.3712121 509.06383,60.9393939 Z M563.1875,48 L576,48 L576,91.7743191 L563.1875,91.7743191 L563.1875,87.6595331 C560.88125,90.8988327 556.610417,93 550.972917,93 C542.345833,93 535,86.6964981 535,74.8774319 L535,48 L547.8125,48 L547.8125,72.9513619 C547.8125,78.3793774 551.14375,80.9182879 555.24375,80.9182879 C559.941667,80.9182879 563.1875,78.1167315 563.1875,71.9007782 L563.1875,48 Z" id="cryptogosu-copy" fill="#FFFFFF" fill-rule="nonzero"></path>
        <g id="Cryptogosu-01-Copy" fill="#FFFFFF" fill-rule="nonzero">
            <path d="M122.646231,81.9065757 C122.563595,81.8310962 120.903981,81.1311958 118.962027,80.3420924 L115.518846,78.9697387 L115.422437,78.9285681 L115.51196,78.3247325 C115.635914,77.4807349 115.801187,74.7428892 115.808073,73.4597385 C115.822988,71.7547059 115.740217,70.050215 115.560164,68.3545826 C115.477528,67.5174469 115.401778,66.7352052 115.394891,66.6254169 L115.394891,66.4195639 L115.443096,66.4195639 L118.982686,64.9305601 C122.859708,63.2905974 122.783958,63.3386298 122.942345,62.6867617 C123.066299,62.1995762 122.295027,58.9539596 121.337822,55.9073343 C120.305417,52.9363469 119.076964,50.036641 117.660505,47.227197 C116.131732,44.4275954 114.334392,41.6142702 113.907437,41.3603848 C113.31521,41.0172964 113.404733,40.9898493 109.520824,42.629812 L106.077643,44.0776452 L105.981234,44.1188158 L105.83662,43.9678569 L104.707257,42.6435355 C103.610248,41.3367261 102.442417,40.0906023 101.208985,38.9107334 C100.286212,38.032427 98.192758,36.2415054 97.4972353,35.7337345 L97.0014172,35.3769225 L97.0771672,35.184793 L98.4544397,31.8088029 C100.003871,27.9936595 100.031417,27.8838712 99.6251214,27.3212062 C99.3496669,26.9438089 97.9104171,26.0243319 95.6310311,24.7823518 C91.539843,22.5986166 87.2218066,20.8660663 82.7535333,19.61544 C81.3431491,19.2061354 79.907829,18.8875505 78.4564431,18.6616541 C78.0496642,18.6725728 77.6596723,18.8255836 77.3546251,19.0939456 C77.2788751,19.1831486 76.5695797,20.8368348 75.777648,22.7649918 L74.4003756,26.0106083 C72.4336672,25.7641293 70.4534207,25.6403762 68.4712174,25.6400728 L68.3954675,25.6400728 C49.1926407,25.6430131 31.8792172,37.1627673 24.5173791,54.8350378 C17.155541,72.5073082 21.1926175,92.8577464 34.7487003,106.409952 C43.6255348,115.33379 55.7168958,120.347275 68.3266038,120.33248 L68.4023538,120.33248 C70.5978313,120.333837 72.7907271,120.182511 74.9650573,119.879603 L76.4731707,123.406552 C78.1052386,127.249143 78.0708068,127.194249 78.7112385,127.338346 L78.8696248,127.338346 C79.8750337,127.338346 83.8553513,126.315942 87.0093053,125.224921 C88.5656232,124.682841 92.8145089,122.81644 94.3501677,121.993028 C97.0565081,120.545195 99.9281213,118.719964 100.182917,118.294535 C100.527235,117.711284 100.55478,117.800487 98.915826,113.937312 L97.4490308,110.444671 L97.4490308,110.403501 L97.5936444,110.259404 L98.9295987,109.134074 C100.249435,108.040584 101.507003,106.874558 102.696439,105.641433 C103.577893,104.721956 105.38212,102.642841 105.898598,101.949802 L106.256688,101.455755 L106.353098,101.496925 L109.844483,102.869279 C113.680187,104.399453 113.783483,104.4269 114.348164,104.022056 C114.733801,103.747585 115.656573,102.313476 116.909891,100.04223 C119.114257,95.9891268 120.864728,91.7068162 122.129754,87.2724788 C122.545094,85.8781254 122.873965,84.4596353 123.114504,83.025044 C123.100178,82.6078693 122.93369,82.2102125 122.646231,81.9065757 Z M68.7987565,103.584493 L68.5468682,103.584493 C51.1767408,103.558115 37.1097891,89.8044852 37.1098101,72.8476506 L37.1098101,72.7930073 C37.1406803,55.8415277 51.2241596,42.1145487 68.5888496,42.1108085 L68.9876727,42.1108085 L68.7987565,103.584493 Z" id="Shape" transform="translate(72.000000, 73.000000) rotate(-30.000000) translate(-72.000000, -73.000000) "></path>
        </g>
    </g>
</svg>