<?xml version="1.0" encoding="UTF-8"?>
<svg width="600px" height="600px" viewBox="0 0 600 600" version="1.1" xmlns="http://www.w3.org/2000/svg" xmlns:xlink="http://www.w3.org/1999/xlink">
    <!-- Generator: Sketch 55 (78076) - https://sketchapp.com -->
    <title>Artboard Copy</title>
    <desc>Created with Sketch.</desc>
    <defs>
        <linearGradient x1="99.8411439%" y1="0%" x2="0.158856135%" y2="100%" id="linearGradient-1">
            <stop stop-color="#32FBFC" offset="0%"></stop>
            <stop stop-color="#3214F2" offset="100%"></stop>
        </linearGradient>
    </defs>
    <g id="Artboard-Copy" stroke="none" stroke-width="1" fill="none" fill-rule="evenodd">
        <rect id="Rectangle" stroke="#979797" fill="url(#linearGradient-1)" x="-10.5" y="-10.5" width="627" height="628"></rect>
        <g id="Cryptogosu-01" transform="translate(74.000000, 67.000000)" fill="#FFFFFF" fill-rule="nonzero">
            <path d="M391.638282,261.549845 C391.373731,261.307898 386.060663,259.064381 379.843712,256.534926 L368.82075,252.135875 L368.512107,252.003903 L368.798704,250.068321 C369.195531,247.362904 369.724633,238.586796 369.746679,234.473682 C369.794427,229.008235 369.529445,223.544525 368.953026,218.10921 C368.688474,215.425789 368.445969,212.918329 368.423923,212.566405 L368.423923,211.906547 L368.578245,211.906547 L379.90985,207.133576 C392.321705,201.876709 392.0792,202.030676 392.586256,199.941127 C392.983083,198.379463 390.51394,187.975706 387.449556,178.209811 C384.144425,168.686372 380.21167,159.391425 375.677032,150.38581 C370.782837,141.411744 365.028851,132.393688 363.662004,131.579864 C361.766054,130.480101 362.052651,130.39212 349.61875,135.648986 L338.595788,140.289986 L338.287145,140.421957 L337.82418,139.938062 L334.208649,135.692977 C330.696696,131.504026 326.958017,127.509602 323.009319,123.727556 C320.055165,120.912163 313.353204,115.171401 311.126566,113.543752 L309.539259,112.399998 L309.781765,111.784131 L314.190949,100.962464 C319.151282,88.7331003 319.239466,88.3811761 317.938757,86.577565 C317.05692,85.3678257 312.449321,82.4204611 305.15212,78.4393193 C292.054636,71.4394011 278.230922,65.8857466 263.926242,61.8768898 C259.411054,60.5648723 254.816036,59.5436551 250.169585,58.8195489 C248.867328,58.8545484 247.618812,59.3450215 246.642237,60.2052502 C246.399732,60.4911885 244.129002,65.7920458 241.59372,71.9727134 L237.184536,82.3764706 C230.888337,81.586387 224.548798,81.189699 218.202995,81.1887266 L217.96049,81.1887266 C156.484773,81.1981516 101.057772,118.124487 77.489665,174.772587 C53.9215584,231.420687 66.8458101,296.653598 110.244103,340.094913 C138.662302,368.700094 177.371451,384.770717 217.74003,384.723292 L217.982535,384.723292 C225.011113,384.727642 232.031425,384.242568 238.992301,383.271605 L243.820359,394.577168 C249.045243,406.894513 248.935013,406.718551 250.985284,407.180451 L251.492341,407.180451 C254.711045,407.180451 267.45359,403.903158 277.550623,400.405912 C282.533002,398.668286 296.135337,392.685576 301.051579,390.046145 C309.715627,385.405145 318.908777,379.554407 319.724476,378.190701 C320.826773,376.321104 320.914956,376.607042 315.668026,364.223712 L310.972244,353.028125 L310.972244,352.896153 L311.435209,352.434253 L315.712118,348.827031 C319.937427,345.321873 323.963393,341.5842 327.771239,337.631444 C330.593117,334.68408 336.369149,328.019516 338.022594,325.797995 L339.168982,324.214337 L339.477625,324.346308 L350.654908,328.74536 C362.934488,333.650302 363.265177,333.738283 365.072943,332.440563 C366.307515,331.560753 369.261668,326.963744 373.274027,319.683313 C380.331059,306.691174 385.934996,292.964315 389.984837,278.750137 C391.314502,274.280566 392.367346,269.733626 393.137405,265.135072 C393.091542,263.797827 392.558548,262.523147 391.638282,261.549845 Z M219.251575,331.037963 L218.445182,331.037963 C162.836649,330.953411 117.802867,286.866432 117.802934,232.511647 L117.802934,232.336489 C117.901761,177.99887 162.988455,133.99732 218.579581,133.985331 L219.856369,133.985331 L219.251575,331.037963 Z" id="Shape" transform="translate(229.500000, 233.000000) rotate(-30.000000) translate(-229.500000, -233.000000) "></path>
        </g>
    </g>
</svg>